<?xml version="1.0" encoding="UTF-8"?>
<svg id="Layer_2" data-name="Layer 2" xmlns="http://www.w3.org/2000/svg" viewBox="0 0 2991.75 864.45">
  <defs>
    <style>
      .cls-1 {
        fill: #fff;
      }
    </style>
  </defs>
  <g id="Layer_1-2" data-name="Layer 1">
    <g>
      <g>
        <path class="cls-1" d="M146.56,428.69c-.02.95-.02,1.9-.02,2.85,0,101.75,53.16,191.09,133.23,241.74v-244.59h137.62v435.76c-48.31-1.65-94.59-11.23-137.62-27.47C116.28,775.26,0,617.32,0,432.23c0-1.18,0-2.37.02-3.54C1.48,245.12,117.32,88.8,279.77,27.47,322.8,11.23,369.09,1.65,417.39,0v146.08c-50.44,2.6-97.42,18.29-137.62,43.72-79.32,50.18-132.24,138.32-133.21,238.89Z"/>
        <path class="cls-1" d="M905,432.23c0,183.99-114.92,341.17-276.89,403.64-43.66,16.86-90.75,26.82-139.94,28.56v-147.47c51.44-2.8,99.28-19.2,139.94-45.67,78.34-50.98,130.14-139.32,130.14-239.76,0-.95,0-1.9-.02-2.85-.96-99.26-52.52-186.4-130.12-236.91v236.91h-139.94V.02c49.19,1.74,96.28,11.7,139.94,28.56,160.94,62.08,275.41,217.63,276.87,400.11.02,1.17.02,2.36.02,3.54Z"/>
      </g>
      <g>
        <path class="cls-1" d="M1197.38,391.24c-20.28,0-38.88-3.44-55.78-10.33s-31.49-16.46-43.76-28.74c-12.27-12.27-21.73-26.67-28.36-43.2-6.64-16.53-9.95-34.43-9.95-53.71s3.44-37.12,10.33-53.53c6.88-16.4,16.65-30.67,29.3-42.82,12.64-12.14,27.48-21.6,44.51-28.36,17.03-6.76,35.68-10.14,55.97-10.14,14.02,0,27.42,1.88,40.19,5.63,12.77,3.76,24.42,8.89,34.93,15.4,10.52,6.52,19.28,14.03,26.29,22.54l-34.93,36.81c-6.51-6.26-13.33-11.58-20.47-15.96-7.14-4.38-14.59-7.76-22.35-10.14-7.76-2.38-15.78-3.57-24.04-3.57-11.77,0-22.6,2.13-32.49,6.39-9.9,4.26-18.59,10.14-26.11,17.65-7.51,7.51-13.33,16.4-17.47,26.67-4.13,10.27-6.2,21.41-6.2,33.43s2.19,22.85,6.57,33.24c4.38,10.39,10.39,19.41,18.03,27.05,7.64,7.64,16.59,13.65,26.86,18.03,10.27,4.38,21.28,6.57,33.06,6.57,8.26,0,16.15-1.25,23.67-3.76,7.51-2.5,14.09-6.07,19.72-10.71,5.63-4.63,10.01-10.08,13.15-16.34,3.13-6.26,4.7-12.9,4.7-19.91v-9.02l7.51,10.52h-75.13v-46.95h121.7c.25,2.76.56,6.14.94,10.14.38,4.01.62,7.95.75,11.83.12,3.89.19,6.95.19,9.2,0,17.03-3.07,32.68-9.2,46.95-6.14,14.27-14.65,26.55-25.54,36.81-10.89,10.27-23.73,18.22-38.5,23.85-14.78,5.63-30.8,8.45-48.08,8.45Z"/>
        <path class="cls-1" d="M1484.73,391.24c-19.29,0-37.06-3.38-53.34-10.14-16.28-6.76-30.49-16.21-42.63-28.36-12.15-12.14-21.48-26.54-27.98-43.2-6.51-16.65-9.77-34.75-9.77-54.28s3.25-37.87,9.77-54.28c6.51-16.4,15.83-30.74,27.98-43.01,12.14-12.27,26.35-21.79,42.63-28.55,16.28-6.76,34.05-10.14,53.34-10.14s37.38,3.38,53.53,10.14,30.3,16.28,42.45,28.55c12.14,12.27,21.47,26.67,27.98,43.2,6.51,16.53,9.77,34.56,9.77,54.09s-3.26,37.56-9.77,54.09c-6.51,16.53-15.84,30.93-27.98,43.2-12.15,12.27-26.29,21.79-42.45,28.55s-34,10.14-53.53,10.14ZM1484.73,337.9c11.02,0,21.22-2,30.61-6.01,9.39-4,17.47-9.77,24.23-17.28s12.08-16.28,15.96-26.29c3.88-10.01,5.82-21.04,5.82-33.06s-1.94-23.04-5.82-33.06c-3.88-10.01-9.2-18.72-15.96-26.11-6.76-7.38-14.84-13.15-24.23-17.28-9.39-4.13-19.6-6.2-30.61-6.2s-21.17,2.07-30.43,6.2c-9.27,4.13-17.41,9.9-24.42,17.28-7.01,7.39-12.34,16.09-15.96,26.11-3.63,10.02-5.45,21.04-5.45,33.06s1.81,23.04,5.45,33.06c3.63,10.02,8.95,18.78,15.96,26.29,7.01,7.51,15.15,13.28,24.42,17.28,9.26,4.01,19.4,6.01,30.43,6.01Z"/>
        <path class="cls-1" d="M1777.72,389.74c-21.29,0-40.26-4.44-56.91-13.33-16.66-8.89-29.74-21.16-39.25-36.81-9.52-15.65-14.27-33.37-14.27-53.15V124.17h56.72v158.89c0,10.52,2.38,19.97,7.14,28.36,4.75,8.39,11.2,15.09,19.34,20.1,8.13,5.01,17.21,7.51,27.23,7.51s19.59-2.5,27.98-7.51c8.39-5.01,15.03-11.7,19.91-20.1,4.88-8.39,7.33-17.84,7.33-28.36V124.17h54.84v162.27c0,19.79-4.76,37.5-14.27,53.15-9.52,15.65-22.6,27.93-39.25,36.81-16.66,8.89-35.5,13.33-56.53,13.33Z"/>
        <path class="cls-1" d="M2008.73,387.48v-212.23h-76.63v-50.71h211.86v50.71h-78.88v212.23h-56.34Z"/>
        <path class="cls-1" d="M2293.84,124.55h-50.34l-102.92,262.94h55.59l20.82-55.22h100.9l20.65,55.22h57.84l-102.54-262.94ZM2234.13,286.82l15.01-39.82c2-5.76,4.13-11.64,6.38-17.65,2.26-6.01,4.38-12.21,6.39-18.6,1.98-6.33,3.91-12.55,5.78-18.64,1.84,5.89,3.8,12.05,5.86,18.46,2.26,7.01,4.45,13.65,6.58,19.9,2.12,6.27,3.94,11.4,5.44,15.4l15.32,40.95h-66.76Z"/>
        <path class="cls-1" d="M2692.76,124.55v262.94h-55.22v-90.15c0-22.54.56-42.83,1.69-60.86.39-6.3.89-12.58,1.48-18.85l-65.9,102.24h-24.79l-64.57-101.5c.51,5.31.93,10.66,1.27,16.05,1.13,17.65,1.69,38.63,1.69,62.92v90.15h-55.21V124.55h51.46l78.88,128.38,80.01-128.38h49.21Z"/>
        <path class="cls-1" d="M1197.38,736.65c-20.28,0-38.88-3.44-55.78-10.33s-31.49-16.46-43.76-28.74c-12.27-12.27-21.73-26.67-28.36-43.2-6.64-16.53-9.95-34.43-9.95-53.71s3.44-37.12,10.33-53.53c6.88-16.4,16.65-30.67,29.3-42.82,12.64-12.14,27.48-21.6,44.51-28.36,17.03-6.76,35.68-10.14,55.97-10.14,14.02,0,27.42,1.88,40.19,5.63,12.77,3.76,24.42,8.89,34.93,15.4,10.52,6.51,19.28,14.03,26.29,22.54l-34.93,36.81c-6.51-6.26-13.33-11.58-20.47-15.96-7.14-4.38-14.59-7.76-22.35-10.14-7.76-2.38-15.78-3.57-24.04-3.57-11.77,0-22.6,2.13-32.49,6.39-9.9,4.26-18.59,10.14-26.11,17.66s-13.33,16.4-17.47,26.67c-4.13,10.27-6.2,21.41-6.2,33.43s2.19,22.85,6.57,33.24c4.38,10.39,10.39,19.41,18.03,27.04,7.64,7.64,16.59,13.65,26.86,18.03,10.27,4.38,21.28,6.57,33.06,6.57,8.26,0,16.15-1.25,23.67-3.76,7.51-2.5,14.09-6.07,19.72-10.71,5.63-4.63,10.01-10.08,13.15-16.34,3.13-6.26,4.7-12.89,4.7-19.91v-9.02l7.51,10.52h-75.13v-46.95h121.7c.25,2.76.56,6.14.94,10.14.38,4.01.62,7.95.75,11.83.12,3.89.19,6.95.19,9.2,0,17.03-3.07,32.68-9.2,46.95-6.14,14.27-14.65,26.55-25.54,36.81-10.89,10.27-23.73,18.22-38.5,23.85-14.78,5.63-30.8,8.45-48.08,8.45Z"/>
        <path class="cls-1" d="M1484.73,736.65c-19.29,0-37.06-3.38-53.34-10.14-16.28-6.76-30.49-16.21-42.63-28.36-12.15-12.14-21.48-26.54-27.98-43.2-6.51-16.65-9.77-34.75-9.77-54.28s3.25-37.87,9.77-54.28c6.51-16.4,15.83-30.74,27.98-43.01,12.14-12.27,26.35-21.79,42.63-28.55,16.28-6.76,34.05-10.14,53.34-10.14s37.38,3.38,53.53,10.14c16.15,6.76,30.3,16.28,42.45,28.55,12.14,12.27,21.47,26.67,27.98,43.2,6.51,16.53,9.77,34.56,9.77,54.09s-3.26,37.56-9.77,54.09c-6.51,16.53-15.84,30.93-27.98,43.2-12.15,12.27-26.29,21.79-42.45,28.55s-34,10.14-53.53,10.14ZM1484.73,683.31c11.02,0,21.22-2,30.61-6.01,9.39-4,17.47-9.77,24.23-17.28s12.08-16.28,15.96-26.29c3.88-10.01,5.82-21.04,5.82-33.06s-1.94-23.04-5.82-33.06c-3.88-10.01-9.2-18.72-15.96-26.11-6.76-7.38-14.84-13.15-24.23-17.28-9.39-4.13-19.6-6.2-30.61-6.2s-21.17,2.07-30.43,6.2c-9.27,4.13-17.41,9.9-24.42,17.28-7.01,7.39-12.34,16.09-15.96,26.11-3.63,10.02-5.45,21.04-5.45,33.06s1.81,23.04,5.45,33.06c3.63,10.02,8.95,18.78,15.96,26.29,7.01,7.51,15.15,13.28,24.42,17.28,9.26,4.01,19.4,6.01,30.43,6.01Z"/>
        <path class="cls-1" d="M1754.81,736.65c-16.28,0-31.12-2.01-44.51-6.01-13.4-4-25.3-9.89-35.69-17.65-10.39-7.76-19.72-17.15-27.98-28.17l35.31-40.19c12.27,17.03,24.47,28.61,36.62,34.75,12.14,6.14,25.36,9.2,39.63,9.2,7.76,0,14.71-1.06,20.85-3.19,6.13-2.12,10.95-5.19,14.46-9.2,3.5-4,5.26-8.76,5.26-14.27,0-4-.88-7.7-2.63-11.08-1.75-3.38-4.26-6.39-7.51-9.02-3.26-2.63-7.14-5.01-11.64-7.14-4.51-2.12-9.52-4-15.02-5.63-5.51-1.63-11.52-2.94-18.03-3.94-14.03-3.25-26.29-7.2-36.81-11.83-10.52-4.63-19.29-10.39-26.29-17.28-7.01-6.88-12.21-14.71-15.59-23.48-3.38-8.76-5.07-18.65-5.07-29.67s2.5-21.72,7.51-31.36c5.01-9.64,11.96-17.97,20.85-24.98,8.89-7.01,19.16-12.4,30.8-16.15,11.64-3.76,23.98-5.63,37-5.63,16.02,0,30.05,1.82,42.07,5.45,12.02,3.63,22.47,8.83,31.37,15.59,8.89,6.76,16.34,15.03,22.35,24.79l-35.68,34.56c-5.26-7.01-10.96-12.89-17.09-17.65-6.14-4.75-12.77-8.32-19.91-10.71-7.14-2.38-14.46-3.57-21.97-3.57-8.26,0-15.4,1.07-21.41,3.19-6.01,2.13-10.71,5.2-14.09,9.2-3.38,4.01-5.07,8.89-5.07,14.65,0,4.51,1.13,8.52,3.38,12.02,2.25,3.51,5.5,6.57,9.77,9.2,4.25,2.63,9.39,4.95,15.4,6.95,6.01,2.01,12.64,3.76,19.91,5.26,13.77,2.76,26.17,6.39,37.19,10.89,11.02,4.51,20.47,9.95,28.36,16.34s13.96,13.9,18.22,22.54c4.26,8.64,6.39,18.35,6.39,29.11,0,17.78-4.26,32.93-12.77,45.45-8.52,12.52-20.28,22.1-35.31,28.74-15.03,6.63-32.56,9.95-52.59,9.95Z"/>
        <path class="cls-1" d="M2241.63,469.95l-80.76,262.95h-41.7l-61.72-147.72-57.73,147.72h-43.2l-80.01-262.95h57.85l42.82,146.88c1.75,5.26,3.32,10.95,4.7,17.09,1.37,6.14,2.5,12.02,3.38,17.65.11.74.22,1.47.33,2.19.08-.36.16-.71.23-1.06,1.51-7.14,2.94-13.52,4.32-19.16,1.38-5.63,3.07-11.33,5.07-17.09l41.32-108.56h46.58l40.57,108.56c3,7.51,5.44,14.71,7.32,21.6,1.26,4.62,2.38,9.12,3.35,13.51.29-2.34.61-4.72.97-7.13.5-3.38,1.25-7.38,2.26-12.02.99-4.63,2.5-10.07,4.5-16.34l42.45-146.12h57.1Z"/>
        <path class="cls-1" d="M2386.99,469.95h-50.33l-102.92,262.95h55.59l20.82-55.22h100.89l20.65,55.22h57.85l-102.55-262.95ZM2327.28,632.23l15.01-39.82c2-5.76,4.14-11.64,6.39-17.65s4.38-12.21,6.39-18.6c1.98-6.32,3.91-12.53,5.77-18.62,1.86,5.88,3.81,12.03,5.87,18.43,2.25,7.02,4.44,13.66,6.57,19.91,2.13,6.26,3.95,11.4,5.45,15.4l15.31,40.95h-66.76Z"/>
        <path class="cls-1" d="M2785.91,469.95v262.95h-55.21v-90.16c0-22.53.56-42.82,1.69-60.85.39-6.3.88-12.58,1.48-18.85l-65.91,102.24h-24.79l-64.56-101.5c.5,5.31.93,10.66,1.27,16.05,1.13,17.65,1.69,38.63,1.69,62.91v90.16h-55.22v-262.95h51.46l78.89,128.39,80.01-128.39h49.2Z"/>
        <path class="cls-1" d="M2847.51,732.89v-48.46h43.95v-166.03h-43.95v-48.46h144.24v48.46h-43.95v166.03h43.95v48.46h-144.24Z"/>
      </g>
    </g>
  </g>
</svg>