<?xml version="1.0" encoding="UTF-8"?>
<svg id="Layer_2" data-name="Layer 2" xmlns="http://www.w3.org/2000/svg" viewBox="0 0 16 16">
  <defs>
    <style>
      .cls-1 {
        fill: #fff;
      }
    </style>
  </defs>
  <g id="Layer_1-2" data-name="Layer 1">
    <g>
      <path class="cls-1" d="M2.59,7.93s0,.04,0,.05c0,1.88.94,3.54,2.36,4.47v-4.53h2.43v8.07c-.85-.03-1.67-.21-2.43-.51C2.06,14.35,0,11.43,0,8c0-.02,0-.04,0-.07C.03,4.54,2.07,1.64,4.95.51c.76-.3,1.58-.48,2.43-.51v2.7c-.89.05-1.72.34-2.43.81-1.4.93-2.34,2.56-2.36,4.42Z"/>
      <path class="cls-1" d="M16,8c0,3.41-2.03,6.31-4.9,7.47-.77.31-1.6.5-2.47.53v-2.73c.91-.05,1.76-.36,2.47-.85,1.38-.94,2.3-2.58,2.3-4.44,0-.02,0-.04,0-.05-.02-1.84-.93-3.45-2.3-4.38v4.38h-2.47V0c.87.03,1.7.22,2.47.53,2.85,1.15,4.87,4.03,4.89,7.41,0,.02,0,.04,0,.07Z"/>
    </g>
  </g>
</svg>